<svg width="40" height="40" viewBox="0 0 40 40" fill="none" xmlns="http://www.w3.org/2000/svg">
<path d="M28.408 23.4938C28.4037 23.3918 28.3451 23.2999 28.2546 23.2528C28.1637 23.1976 28.0497 23.1976 27.9587 23.2528C25.8335 24.9837 21.835 25.8929 18.0008 25.8929C14.1666 25.8929 10.1572 24.9837 8.04295 23.2528C7.95205 23.1976 7.83805 23.1976 7.74715 23.2528C7.65655 23.2999 7.59795 23.3918 7.59375 23.4938V25.3781C7.59375 27.7991 12.2495 29.76 18.0008 29.76C23.7521 29.76 28.408 27.7991 28.408 25.3781V23.4938Z" fill="#006D40"/>
<path d="M7.59375 20.4812C7.59375 22.9022 12.2495 24.8631 18.0008 24.8631C23.7521 24.8631 28.408 22.9022 28.408 20.4812V18.5969C28.4038 18.4949 28.3451 18.403 28.2546 18.3559C28.1637 18.3007 28.0497 18.3007 27.9587 18.3559C25.8335 20.0868 21.835 20.996 18.0008 20.996C14.1666 20.996 10.1572 20.0868 8.04295 18.3559C7.95205 18.3007 7.83805 18.3007 7.74715 18.3559C7.65655 18.403 7.59805 18.4949 7.59375 18.5969V20.4812Z" fill="#006D40"/>
<path d="M18.0008 16.0993C14.1666 16.0993 10.1572 15.1901 8.04295 13.4592C7.95205 13.404 7.83805 13.404 7.74715 13.4592C7.67335 13.4931 7.61755 13.5569 7.59375 13.6345V15.5516C7.59375 17.9726 12.2495 19.9335 18.0008 19.9335C23.7521 19.9335 28.408 17.9726 28.408 15.5516V13.6345C28.4038 13.5325 28.3451 13.4405 28.2546 13.3935C28.1637 13.3383 28.0497 13.3383 27.9587 13.3935C25.8335 15.1901 21.835 16.0993 18.0008 16.0993Z" fill="#006D40"/>
<path d="M7.59375 10.6218C7.59375 13.995 16.2663 16.1033 23.2044 14.4167C26.4244 13.6339 28.408 12.1873 28.408 10.6218C28.408 7.24861 19.7353 5.14041 12.7973 6.82701C9.57735 7.60971 7.59375 9.05631 7.59375 10.6218Z" fill="#006D40"/>
</svg>
