<svg width="221" height="104" viewBox="0 0 221 104" fill="none" xmlns="http://www.w3.org/2000/svg">
<g filter="url(#filter0_d_798_1152)">
<rect x="16" width="189" height="84" rx="4" fill="white" shape-rendering="crispEdges"/>
<rect x="16.5" y="0.5" width="188" height="83" rx="3.5" stroke="#D8D8D8" stroke-opacity="0.301961" shape-rendering="crispEdges"/>
<path d="M108.325 19.4801C109.441 18.8414 110.894 18.8385 112.009 19.4801C117.618 22.6492 123.228 25.8134 128.836 28.9845C129.891 29.5786 130.596 30.7525 130.585 31.9678V51.0347C130.593 52.3003 129.818 53.5022 128.705 54.0828C123.115 57.2345 117.528 60.39 111.939 63.5417C110.8 64.1929 109.317 64.1427 108.214 63.4382C106.538 62.4667 104.859 61.4999 103.183 60.5293C102.841 60.3251 102.455 60.1626 102.213 59.8306C102.426 59.5424 102.809 59.5065 103.119 59.3807C103.819 59.1582 104.461 58.8011 105.104 58.4546C105.267 58.3434 105.465 58.386 105.621 58.4856C107.054 59.3073 108.474 60.1529 109.912 60.9667C110.219 61.1438 110.53 60.9087 110.792 60.7625C116.278 57.6621 121.77 54.5734 127.255 51.472C127.458 51.3743 127.57 51.1586 127.554 50.9359C127.558 44.6462 127.555 38.3553 127.556 32.0655C127.579 31.813 127.433 31.5807 127.204 31.4773C121.634 28.3401 116.066 25.198 110.496 22.0599C110.399 21.9936 110.285 21.958 110.168 21.9578C110.051 21.9577 109.936 21.9929 109.84 22.059C104.27 25.198 98.7029 28.343 93.1331 31.4801C92.9055 31.5836 92.7528 31.812 92.7799 32.0655C92.7808 38.3553 92.7799 44.6462 92.7799 50.9369C92.7702 51.0455 92.7941 51.1545 92.8482 51.2491C92.9024 51.3438 92.9842 51.4196 93.0828 51.4663C94.5691 52.3091 96.0574 53.146 97.5447 53.986C98.3826 54.437 99.4113 54.705 100.334 54.3594C101.149 54.0673 101.72 53.236 101.705 52.371C101.712 46.1179 101.701 39.8639 101.71 33.6118C101.69 33.3342 101.953 33.1049 102.223 33.131C102.937 33.1262 103.653 33.1214 104.367 33.1329C104.665 33.1262 104.87 33.4251 104.833 33.7048C104.83 39.9974 104.841 46.2902 104.828 52.5829C104.83 54.2599 104.141 56.0847 102.59 56.9053C100.679 57.8953 98.3168 57.6853 96.4289 56.7361C94.7944 55.9203 93.2347 54.9576 91.6293 54.0836C90.5137 53.5062 89.7423 52.2995 89.7501 51.0348V31.9678C89.7384 30.7273 90.472 29.5322 91.5596 28.9467C97.1488 25.7924 102.737 22.6358 108.325 19.4801Z" fill="#8CC84B"/>
<path d="M113.201 32.6876C115.638 32.5307 118.248 32.5947 120.441 33.7956C122.14 34.7158 123.081 36.6472 123.111 38.5341C123.064 38.7886 122.798 38.929 122.555 38.9115C121.848 38.9106 121.14 38.9211 120.433 38.9067C120.133 38.9183 119.959 38.6416 119.921 38.3764C119.718 37.4736 119.225 36.5795 118.376 36.144C117.071 35.4909 115.559 35.5238 114.136 35.5374C113.098 35.5925 111.981 35.6824 111.102 36.2931C110.426 36.7556 110.221 37.6893 110.462 38.4413C110.689 38.9812 111.313 39.1555 111.823 39.316C114.76 40.0844 117.873 40.0079 120.755 41.0191C121.948 41.4313 123.115 42.2326 123.524 43.4818C124.058 45.1559 123.824 47.1571 122.633 48.5011C121.667 49.6071 120.26 50.2091 118.857 50.536C116.99 50.9522 115.053 50.9628 113.157 50.778C111.375 50.5748 109.52 50.1065 108.144 48.892C106.967 47.8702 106.392 46.2783 106.449 44.7418C106.463 44.4823 106.721 44.3014 106.97 44.3227C107.682 44.3169 108.394 44.315 109.106 44.3237C109.391 44.3033 109.602 44.5492 109.616 44.8173C109.748 45.6774 110.071 46.5802 110.821 47.0902C112.269 48.0241 114.085 47.9602 115.743 47.9863C117.116 47.9254 118.657 47.9069 119.778 46.9993C120.369 46.4817 120.544 45.6156 120.384 44.8705C120.211 44.2414 119.553 43.9483 118.988 43.7566C116.088 42.8392 112.94 43.1721 110.068 42.1347C108.902 41.7226 107.775 40.9436 107.327 39.7457C106.702 38.0504 106.988 35.9534 108.304 34.6548C109.587 33.363 111.439 32.8655 113.201 32.6875V32.6876Z" fill="#8CC84B"/>
</g>
<defs>
<filter id="filter0_d_798_1152" x="0" y="-12" width="221" height="116" filterUnits="userSpaceOnUse" color-interpolation-filters="sRGB">
<feFlood flood-opacity="0" result="BackgroundImageFix"/>
<feColorMatrix in="SourceAlpha" type="matrix" values="0 0 0 0 0 0 0 0 0 0 0 0 0 0 0 0 0 0 127 0" result="hardAlpha"/>
<feOffset dy="4"/>
<feGaussianBlur stdDeviation="8"/>
<feComposite in2="hardAlpha" operator="out"/>
<feColorMatrix type="matrix" values="0 0 0 0 0 0 0 0 0 0 0 0 0 0 0 0 0 0 0.04 0"/>
<feBlend mode="normal" in2="BackgroundImageFix" result="effect1_dropShadow_798_1152"/>
<feBlend mode="normal" in="SourceGraphic" in2="effect1_dropShadow_798_1152" result="shape"/>
</filter>
</defs>
</svg>
