<svg width="234" height="160" viewBox="0 0 234 160" fill="none" xmlns="http://www.w3.org/2000/svg">
<path d="M225.178 1H8.22861C4.25362 1 1.03125 4.13401 1.03125 8V152C1.03125 155.866 4.25362 159 8.22861 159H225.178C229.152 159 232.375 155.866 232.375 152V8C232.375 4.13401 229.152 1 225.178 1Z" fill="#111111" stroke="#344B3B"/>
<path d="M37.713 33.0305L29.6328 24.7158M53.4245 33.0305L61.9537 24.7158M37.713 38.3756L29.6328 47.2842M53.4245 38.3756L61.9537 47.2842" stroke="#A3CFAF" stroke-width="1.31218"/>
<path d="M27.2039 26.4976C28.8439 26.4976 30.1734 25.1681 30.1734 23.5281C30.1734 21.8881 28.8439 20.5586 27.2039 20.5586C25.5639 20.5586 24.2344 21.8881 24.2344 23.5281C24.2344 25.1681 25.5639 26.4976 27.2039 26.4976Z" fill="#19271E" stroke="#A3CFAF" stroke-width="1.31218"/>
<path d="M64.0242 26.4976C65.6642 26.4976 66.9937 25.1681 66.9937 23.5281C66.9937 21.8881 65.6642 20.5586 64.0242 20.5586C62.3842 20.5586 61.0547 21.8881 61.0547 23.5281C61.0547 25.1681 62.3842 26.4976 64.0242 26.4976Z" fill="#19271E" stroke="#A3CFAF" stroke-width="1.31218"/>
<path d="M27.2039 51.4415C28.8439 51.4415 30.1734 50.112 30.1734 48.472C30.1734 46.8319 28.8439 45.5024 27.2039 45.5024C25.5639 45.5024 24.2344 46.8319 24.2344 48.472C24.2344 50.112 25.5639 51.4415 27.2039 51.4415Z" fill="#19271E" stroke="#A3CFAF" stroke-width="1.31218"/>
<path d="M64.0242 51.4415C65.6642 51.4415 66.9937 50.112 66.9937 48.472C66.9937 46.8319 65.6642 45.5024 64.0242 45.5024C62.3842 45.5024 61.0547 46.8319 61.0547 48.472C61.0547 50.112 62.3842 51.4415 64.0242 51.4415Z" fill="#19271E" stroke="#A3CFAF" stroke-width="1.31218"/>
<path d="M51.1858 30.061H39.9633C38.7236 30.061 37.7188 31.3905 37.7188 33.0306V38.3757C37.7188 40.0157 38.7236 41.3452 39.9633 41.3452H51.1858C52.4254 41.3452 53.4303 40.0157 53.4303 38.3757V33.0306C53.4303 31.3905 52.4254 30.061 51.1858 30.061Z" fill="#19271E" stroke="#A3CFAF" stroke-width="1.31218"/>
<path d="M42.6562 41.3452V46.0965H48.9409V41.3452" stroke="#A3CFAF" stroke-width="1.31218"/>
<path d="M37.713 76.4719L29.6328 68.1572M53.4245 76.4719L61.9537 68.1572M37.713 81.817L29.6328 90.7256M53.4245 81.817L61.9537 90.7256" stroke="#A3CFAF" stroke-width="1.31218"/>
<path d="M27.2039 69.939C28.8439 69.939 30.1734 68.6095 30.1734 66.9695C30.1734 65.3295 28.8439 64 27.2039 64C25.5639 64 24.2344 65.3295 24.2344 66.9695C24.2344 68.6095 25.5639 69.939 27.2039 69.939Z" fill="#19271E" stroke="#A3CFAF" stroke-width="1.31218"/>
<path d="M64.0242 69.939C65.6642 69.939 66.9937 68.6095 66.9937 66.9695C66.9937 65.3295 65.6642 64 64.0242 64C62.3842 64 61.0547 65.3295 61.0547 66.9695C61.0547 68.6095 62.3842 69.939 64.0242 69.939Z" fill="#19271E" stroke="#A3CFAF" stroke-width="1.31218"/>
<path d="M27.2039 94.8829C28.8439 94.8829 30.1734 93.5534 30.1734 91.9134C30.1734 90.2733 28.8439 88.9438 27.2039 88.9438C25.5639 88.9438 24.2344 90.2733 24.2344 91.9134C24.2344 93.5534 25.5639 94.8829 27.2039 94.8829Z" fill="#19271E" stroke="#A3CFAF" stroke-width="1.31218"/>
<path d="M64.0242 94.8829C65.6642 94.8829 66.9937 93.5534 66.9937 91.9134C66.9937 90.2733 65.6642 88.9438 64.0242 88.9438C62.3842 88.9438 61.0547 90.2733 61.0547 91.9134C61.0547 93.5534 62.3842 94.8829 64.0242 94.8829Z" fill="#19271E" stroke="#A3CFAF" stroke-width="1.31218"/>
<path d="M51.1858 73.5024H39.9633C38.7236 73.5024 37.7188 74.8319 37.7188 76.472V81.8171C37.7188 83.4571 38.7236 84.7866 39.9633 84.7866H51.1858C52.4254 84.7866 53.4303 83.4571 53.4303 81.8171V76.472C53.4303 74.8319 52.4254 73.5024 51.1858 73.5024Z" fill="#19271E" stroke="#A3CFAF" stroke-width="1.31218"/>
<path d="M42.6562 84.7866V89.5379H48.9409V84.7866" stroke="#A3CFAF" stroke-width="1.31218"/>
<path d="M37.713 123.472L29.6328 115.157M53.4245 123.472L61.9537 115.157M37.713 128.817L29.6328 137.726M53.4245 128.817L61.9537 137.726" stroke="#A3CFAF" stroke-width="1.31218"/>
<path d="M27.2039 116.939C28.8439 116.939 30.1734 115.61 30.1734 113.97C30.1734 112.33 28.8439 111 27.2039 111C25.5639 111 24.2344 112.33 24.2344 113.97C24.2344 115.61 25.5639 116.939 27.2039 116.939Z" fill="#19271E" stroke="#A3CFAF" stroke-width="1.31218"/>
<path d="M64.0242 116.939C65.6642 116.939 66.9937 115.61 66.9937 113.97C66.9937 112.33 65.6642 111 64.0242 111C62.3842 111 61.0547 112.33 61.0547 113.97C61.0547 115.61 62.3842 116.939 64.0242 116.939Z" fill="#19271E" stroke="#A3CFAF" stroke-width="1.31218"/>
<path d="M27.2039 141.883C28.8439 141.883 30.1734 140.553 30.1734 138.913C30.1734 137.273 28.8439 135.944 27.2039 135.944C25.5639 135.944 24.2344 137.273 24.2344 138.913C24.2344 140.553 25.5639 141.883 27.2039 141.883Z" fill="#19271E" stroke="#A3CFAF" stroke-width="1.31218"/>
<path d="M64.0242 141.883C65.6642 141.883 66.9937 140.553 66.9937 138.913C66.9937 137.273 65.6642 135.944 64.0242 135.944C62.3842 135.944 61.0547 137.273 61.0547 138.913C61.0547 140.553 62.3842 141.883 64.0242 141.883Z" fill="#19271E" stroke="#A3CFAF" stroke-width="1.31218"/>
<path d="M51.1858 120.502H39.9633C38.7236 120.502 37.7188 121.832 37.7188 123.472V128.817C37.7188 130.457 38.7236 131.787 39.9633 131.787H51.1858C52.4254 131.787 53.4303 130.457 53.4303 128.817V123.472C53.4303 121.832 52.4254 120.502 51.1858 120.502Z" fill="#19271E" stroke="#A3CFAF" stroke-width="1.31218"/>
<path d="M42.6562 131.787V136.538H48.9409V131.787" stroke="#A3CFAF" stroke-width="1.31218"/>
<path d="M80.1953 36H102.816V126H80.1953M80.1953 81H128.52M122.351 86L128.52 81L122.351 76" stroke="#343936" stroke-width="1.5"/>
<path d="M105.113 79H101V83H105.113V79Z" fill="#6ACB88"/>
<path d="M200.501 43H148.063C145.224 43 142.922 45.2386 142.922 48V117C142.922 119.761 145.224 122 148.063 122H200.501C203.34 122 205.642 119.761 205.642 117V48C205.642 45.2386 203.34 43 200.501 43Z" fill="#1B1D1C" stroke="#343936"/>
<path d="M152.172 65H197.412H152.172ZM152.172 82H197.412H152.172ZM152.172 99H197.412H152.172Z" fill="black"/>
<path d="M152.172 65H197.412M152.172 82H197.412M152.172 99H197.412" stroke="#648C6F" stroke-width="1.5"/>
<path d="M192.275 59C193.411 59 194.332 58.1046 194.332 57C194.332 55.8954 193.411 55 192.275 55C191.139 55 190.219 55.8954 190.219 57C190.219 58.1046 191.139 59 192.275 59Z" fill="#6ACB88"/>
<path d="M192.275 76C193.411 76 194.332 75.1046 194.332 74C194.332 72.8954 193.411 72 192.275 72C191.139 72 190.219 72.8954 190.219 74C190.219 75.1046 191.139 76 192.275 76Z" fill="#6ACB88"/>
<path d="M192.275 93C193.411 93 194.332 92.1046 194.332 91C194.332 89.8954 193.411 89 192.275 89C191.139 89 190.219 89.8954 190.219 91C190.219 92.1046 191.139 93 192.275 93Z" fill="#6ACB88"/>
<path d="M155.258 134H193.301H155.258Z" fill="black"/>
<path d="M155.258 134H193.301" stroke="#648C6F" stroke-width="2" stroke-linecap="round"/>
</svg>
